<?xml version="1.0" encoding="UTF-8"?><svg id="_레이어_2" xmlns="http://www.w3.org/2000/svg" viewBox="0 0 1063.93 603.32"><defs><style>.cls-1{fill:#fff;}</style></defs><g id="_레이어_1-2"><path class="cls-1" d="M938.73,295.74c-.72,0-1.43,.02-2.15,.03-24.93-72.3-93.55-124.24-174.31-124.24-14.25,0-28.12,1.62-41.43,4.68C687.11,73.87,590.75,0,477.12,0c-98.37,0-183.8,55.37-226.85,136.64-5.5-.39-11.04-.6-16.63-.6C104.6,136.04,0,240.65,0,369.68s104.6,233.64,233.64,233.64c53.93,0,103.58-18.28,143.12-48.97,35.79,22.28,78.04,35.16,123.3,35.16,55.77,0,106.97-19.55,147.14-52.17,31.54,25.24,71.54,40.34,115.08,40.34,46.03,0,88.12-16.87,120.42-44.77,16.86,8.46,35.89,13.22,56.04,13.22,69.15,0,125.2-56.05,125.2-125.2s-56.05-125.2-125.2-125.2Z"/></g></svg>