<?xml version="1.0" encoding="UTF-8"?><svg id="_레이어_2" xmlns="http://www.w3.org/2000/svg" viewBox="0 0 785.11 420.14"><defs><style>.cls-1{fill:#fff;}</style></defs><g id="_레이어_1-2"><path class="cls-1" d="M697.89,166.59c-24.54-43.61-71.26-73.08-124.87-73.08-6.64,0-13.16,.46-19.56,1.34-25.96-36.41-68.54-60.16-116.67-60.16-18.3,0-35.8,3.44-51.89,9.7C363.65,17.36,330.66,0,293.6,0c-64.11,0-116.09,51.97-116.09,116.09,0,2.46,.09,4.9,.24,7.33-14.8-5.86-30.94-9.09-47.83-9.09C58.17,114.33,0,172.5,0,244.25s58.17,129.93,129.93,129.93c14.76,0,28.95-2.47,42.17-7,19,22.12,47.17,36.13,78.61,36.13,16.12,0,31.39-3.69,44.99-10.26,23.56,17.04,52.51,27.09,83.81,27.09,35.08,0,67.21-12.62,92.11-33.57,24.9,20.94,57.03,33.57,92.11,33.57,51.31,0,96.32-27,121.6-67.56,2.17,.15,4.36,.23,6.57,.23,51.48,0,93.21-41.73,93.21-93.21s-38.53-89.92-87.22-93.01Z"/></g></svg>