<svg width="1135" height="711" viewBox="0 0 1135 711" fill="none" xmlns="http://www.w3.org/2000/svg">
<g clip-path="url(#clip0_17_11)">
<path d="M-56.696 480.097V693.068L68.0833 604.937L-56.696 480.097ZM-90.8574 793.259C-96.2324 793.259 -101.626 791.97 -106.585 789.41C-117.884 783.532 -125 771.814 -125 759.053V397.559C-125 383.717 -116.691 371.241 -103.916 365.932C-91.1792 360.66 -76.4737 363.58 -66.7078 373.345L124.71 564.929L300.4 440.847L-110.522 150.609C-125.946 139.706 -129.618 118.394 -118.754 102.94C-107.91 87.4869 -86.5802 83.7895 -71.1744 94.6922L379.379 412.879C388.463 419.288 393.857 429.717 393.857 440.828C393.857 451.939 388.463 462.406 379.379 468.777L173.785 614L294.514 734.821C307.838 748.17 307.857 769.842 294.533 783.21C281.209 796.578 259.596 796.578 246.234 783.229L117.083 654.027L-71.1933 787.002C-77.0415 791.136 -83.9116 793.259 -90.8574 793.259Z" fill="#4384F7" fill-opacity="0.15"/>
<path d="M1100.86 793.259C1089.65 793.259 1078.9 787.722 1072.47 778.033L858.018 456.262L652.519 474.92C637.075 476.247 622.691 467.184 617.373 452.622C612.055 438.098 617.146 421.772 629.77 412.86L1081.21 94.654C1096.64 83.7703 1117.95 87.4867 1128.79 102.959C1139.64 118.393 1135.93 139.763 1120.5 150.627L773.532 395.226L872.061 386.258C884.628 385.177 896.608 390.922 903.554 401.351L1066.71 646.177V394.051C1066.71 375.165 1082.01 359.845 1100.86 359.845C1119.71 359.845 1135 375.165 1135 394.051V759.053C1135 774.127 1125.18 787.419 1110.76 791.799C1107.48 792.785 1104.15 793.259 1100.86 793.259Z" fill="#4384F7" fill-opacity="0.15"/>
<path d="M505.009 793.259C486.159 793.259 470.867 777.939 470.867 759.053V140.616C470.867 121.731 486.159 106.41 505.009 106.41C523.86 106.41 539.152 121.731 539.152 140.616V759.072C539.152 777.939 523.86 793.259 505.009 793.259Z" fill="#4384F7" fill-opacity="0.15"/>
<path d="M539.455 34.5093C539.455 53.5843 524.03 69.0186 505.009 69.0186C485.989 69.0186 470.583 53.5653 470.583 34.5093C470.583 15.4533 485.989 0 505.009 0C524.03 0 539.455 15.4533 539.455 34.5093Z" fill="#4384F7" fill-opacity="0.15"/>
</g>
<defs>
<clipPath id="clip0_17_11">
<rect width="1260" height="793.259" fill="white" transform="translate(-125)"/>
</clipPath>
</defs>
</svg>
