<?xml version="1.0" encoding="UTF-8"?><svg id="_레이어_2" xmlns="http://www.w3.org/2000/svg" xmlns:xlink="http://www.w3.org/1999/xlink" viewBox="0 0 55.59 35"><defs><style>.cls-1{clip-path:url(#clippath);}.cls-2{fill:none;}.cls-3{fill:#4384f7;}</style><clipPath id="clippath"><rect class="cls-2" width="55.59" height="35"/></clipPath></defs><g id="_레이어_1-2"><g class="cls-1"><g><path class="cls-3" d="M3.01,21.18v9.4l5.5-3.89-5.5-5.51Zm-1.51,13.82c-.24,0-.48-.06-.69-.17-.5-.26-.81-.78-.81-1.34v-15.95c0-.61,.37-1.16,.93-1.4,.56-.23,1.21-.1,1.64,.33l8.44,8.45,7.75-5.47L.64,6.65c-.68-.48-.84-1.42-.36-2.1,.48-.68,1.42-.84,2.1-.36l19.88,14.04c.4,.28,.64,.74,.64,1.23s-.24,.95-.64,1.23l-9.07,6.41,5.33,5.33c.59,.59,.59,1.55,0,2.13-.59,.59-1.54,.59-2.13,0l-5.7-5.7-8.31,5.87c-.26,.18-.56,.28-.87,.28Z"/><path class="cls-3" d="M54.08,35c-.49,0-.97-.24-1.25-.67l-9.46-14.2-9.07,.82c-.68,.06-1.32-.34-1.55-.98-.23-.64-.01-1.36,.55-1.75L53.22,4.18c.68-.48,1.62-.32,2.1,.37,.48,.68,.31,1.62-.37,2.1l-15.31,10.79,4.35-.4c.55-.05,1.08,.21,1.39,.67l7.2,10.8v-11.12c0-.83,.67-1.51,1.51-1.51s1.51,.68,1.51,1.51v16.1c0,.67-.43,1.25-1.07,1.44-.14,.04-.29,.06-.44,.06Z"/><path class="cls-3" d="M27.79,35c-.83,0-1.51-.68-1.51-1.51V6.2c0-.83,.67-1.51,1.51-1.51s1.51,.68,1.51,1.51v27.29c0,.83-.67,1.51-1.51,1.51Z"/><path class="cls-3" d="M29.31,1.52c0,.84-.68,1.52-1.52,1.52s-1.52-.68-1.52-1.52,.68-1.52,1.52-1.52,1.52,.68,1.52,1.52Z"/></g></g></g></svg>