<?xml version="1.0" encoding="UTF-8"?><svg id="_레이어_2" xmlns="http://www.w3.org/2000/svg" xmlns:xlink="http://www.w3.org/1999/xlink" viewBox="0 0 715.8 80"><defs><style>.cls-1{clip-path:url(#clippath-1);}.cls-2{clip-path:url(#clippath);}.cls-3{fill:none;}.cls-4{fill:#4384f7;}</style><clipPath id="clippath"><rect class="cls-3" x="175.91" width="539.88" height="80"/></clipPath><clipPath id="clippath-1"><rect class="cls-3" width="127.45" height="80"/></clipPath></defs><g id="_레이어_1-2"><g><g class="cls-2"><g><path class="cls-4" d="M478.68,0h-39.1c-1.95,0-3.54,1.59-3.54,3.54V28.52h-8.52c-1.95,0-3.54,1.59-3.54,3.54s1.59,3.54,3.54,3.54h8.52v40.87c0,1.95,1.59,3.54,3.54,3.54s3.54-1.59,3.54-3.54V35.6h23.14c1.95,0,3.54-1.59,3.54-3.54s-1.59-3.54-3.54-3.54h-23.14V7.08h35.57c1.95,0,3.54-1.59,3.54-3.54s-1.59-3.54-3.54-3.54h-.01Z"/><path class="cls-4" d="M266,7.07c-8.82,0-16.01,7.19-16.01,16.01V56.88c0,8.82,7.19,16.01,16.01,16.01s16.01-7.19,16.01-16.01V23.09c0-8.82-7.19-16.01-16.01-16.01Zm0,72.92c-12.73,0-23.09-10.37-23.09-23.09V23.09C242.91,10.35,253.28,0,266,0s23.09,10.35,23.09,23.09V56.88c0,12.75-10.37,23.11-23.09,23.11Z"/><path class="cls-4" d="M514.06,7.07c-8.82,0-16.01,7.19-16.01,16.01V56.88c0,8.82,7.19,16.01,16.01,16.01s16.01-7.19,16.01-16.01V23.09c0-8.82-7.17-16.01-16.01-16.01Zm0,72.92c-12.73,0-23.09-10.37-23.09-23.09V23.09C490.98,10.35,501.35,0,514.06,0s23.09,10.35,23.09,23.09V56.88c0,12.75-10.37,23.11-23.09,23.11Z"/><path class="cls-4" d="M692.69,7.07c-8.82,0-16.01,7.19-16.01,16.01V56.88c0,8.82,7.19,16.01,16.01,16.01s16.01-7.19,16.01-16.01V23.09c0-8.82-7.17-16.01-16.01-16.01Zm0,72.92c-12.73,0-23.09-10.37-23.09-23.09V23.09C669.61,10.35,679.97,0,692.69,0s23.11,10.35,23.11,23.09V56.88c0,12.75-10.37,23.11-23.11,23.11Z"/><path class="cls-4" d="M316.97,24.61V7.08h21.31c5.91,0,10.71,4.8,10.71,10.7s-4.8,10.71-10.71,10.71h-21.31v-3.89Zm22.06,10.94c9.47-.39,17.03-8.21,17.03-17.76S348.09,0,338.28,0h-24.83c-1.95,0-3.54,1.59-3.54,3.54V28.52h-8.52c-1.95,0-3.54,1.59-3.54,3.54s1.59,3.54,3.54,3.54h8.52v40.85c0,1.95,1.59,3.54,3.54,3.54s3.54-1.59,3.54-3.54V35.6h14.4l17.89,42.25c.57,1.36,1.89,2.16,3.26,2.16,.46,0,.92-.1,1.38-.28,1.79-.76,2.65-2.85,1.88-4.64l-16.77-39.54h0Z"/><path class="cls-4" d="M216.37,28.51h-21.33V7.07h21.31c5.91,0,10.7,4.8,10.7,10.7s-4.8,10.73-10.7,10.73h.01ZM216.37,0h-24.86c-1.95,0-3.54,1.59-3.54,3.54V28.52h-8.52c-1.95,0-3.54,1.59-3.54,3.54s1.59,3.54,3.54,3.54h8.52v40.87c0,1.95,1.59,3.54,3.54,3.54s3.54-1.59,3.54-3.54V35.6h21.31c9.82,0,17.78-7.97,17.78-17.78S226.19,.01,216.37,.01h0Z"/><path class="cls-4" d="M417.74,0h-51.16c-1.95,0-3.54,1.59-3.54,3.54s1.59,3.54,3.54,3.54h22.03V76.44c0,1.95,1.59,3.54,3.54,3.54s3.54-1.59,3.54-3.54V7.08h22.03c1.95,0,3.54-1.59,3.54-3.54s-1.57-3.54-3.52-3.54h0Z"/><path class="cls-4" d="M600.24,80h-39.1c-1.95,0-3.54-1.59-3.54-3.54V3.54c0-1.95,1.59-3.54,3.54-3.54s3.54,1.59,3.54,3.54V72.9h35.57c1.95,0,3.54,1.59,3.54,3.54s-1.59,3.56-3.54,3.56h-.01Z"/><path class="cls-4" d="M656.96,72.9h-16.01V7.07h16.01c1.95,0,3.54-1.59,3.54-3.54s-1.59-3.54-3.54-3.54h-39.1c-1.95,0-3.54,1.59-3.54,3.54s1.59,3.54,3.54,3.54h16.01V72.9h-16.01c-1.95,0-3.54,1.59-3.54,3.54s1.59,3.54,3.54,3.54h39.1c1.95,0,3.54-1.59,3.54-3.54s-1.59-3.54-3.54-3.54h0Z"/></g></g><g class="cls-1"><g><path class="cls-4" d="M6.9,48.43v21.48l12.63-8.89s-12.63-12.59-12.63-12.59Zm-3.44,31.57c-.54,0-1.09-.13-1.6-.39-1.14-.6-1.86-1.78-1.86-3.08V40.08c0-1.39,.86-2.66,2.12-3.18,1.3-.54,2.77-.23,3.76,.75l19.35,19.33,17.77-12.5L1.48,15.19C-.07,14.08-.47,11.94,.65,10.39c1.09-1.58,3.23-1.94,4.79-.83L51,41.66c.93,.65,1.48,1.71,1.48,2.81s-.54,2.17-1.48,2.81l-20.81,14.65,12.21,12.17c1.35,1.34,1.35,3.54,0,4.89-1.35,1.34-3.55,1.34-4.89,0l-13.07-13.02-19.02,13.38c-.56,.42-1.27,.65-1.97,.65h0Z"/><path class="cls-4" d="M124.01,80c-1.14,0-2.23-.56-2.87-1.53l-21.69-32.45-20.78,1.88c-1.55,.13-3.02-.77-3.55-2.25-.54-1.48-.02-3.1,1.24-4.01L122.02,9.53c1.55-1.09,3.72-.72,4.81,.83s.72,3.72-.83,4.8l-35.11,24.65,9.96-.9c1.27-.1,2.48,.46,3.18,1.53l16.51,24.68v-25.42c0-1.91,1.55-3.43,3.46-3.43s3.44,1.55,3.44,3.43v36.79c0,1.53-.98,2.87-2.46,3.31-.31,.16-.65,.21-.98,.21Z"/><path class="cls-4" d="M63.73,80c-1.91,0-3.46-1.55-3.46-3.44V14.19c0-1.91,1.55-3.44,3.46-3.44s3.44,1.55,3.44,3.44v62.35c.02,1.91-1.53,3.46-3.44,3.46Z"/><path class="cls-4" d="M67.23,3.48c0,1.91-1.55,3.48-3.49,3.48s-3.49-1.55-3.49-3.48,1.55-3.48,3.49-3.48,3.49,1.55,3.49,3.48Z"/></g></g></g></g></svg>