<?xml version="1.0" encoding="UTF-8"?><svg id="_레이어_2" xmlns="http://www.w3.org/2000/svg" xmlns:xlink="http://www.w3.org/1999/xlink" viewBox="0 0 500 198.81"><defs><style>.cls-1{clip-path:url(#clippath-1);}.cls-2{clip-path:url(#clippath);}.cls-3{fill:none;}.cls-4{fill:#4384f7;}</style><clipPath id="clippath"><rect class="cls-3" y="124.72" width="500" height="74.09"/></clipPath><clipPath id="clippath-1"><rect class="cls-3" width="121.83" height="76.47"/></clipPath></defs><g id="_레이어_1-2"><g class="cls-2"><g><path class="cls-4" d="M280.4,124.72h-36.21c-1.81,0-3.28,1.47-3.28,3.28v23.13h-7.89c-1.81,0-3.28,1.47-3.28,3.28s1.47,3.28,3.28,3.28h7.89v37.85c0,1.81,1.47,3.28,3.28,3.28s3.28-1.47,3.28-3.28v-37.85h21.43c1.81,0,3.28-1.47,3.28-3.28s-1.47-3.28-3.28-3.28h-21.43v-19.85h32.94c1.81,0,3.28-1.47,3.28-3.28s-1.47-3.28-3.28-3.28Z"/><path class="cls-4" d="M83.43,131.27c-8.17,0-14.83,6.66-14.83,14.83v31.3c0,8.17,6.66,14.83,14.83,14.83s14.83-6.66,14.83-14.83v-31.3c0-8.17-6.66-14.83-14.83-14.83Zm0,67.53c-11.79,0-21.38-9.6-21.38-21.38v-31.32c0-11.79,9.6-21.38,21.38-21.38s21.38,9.59,21.38,21.38v31.3c0,11.81-9.6,21.4-21.38,21.4Z"/><path class="cls-4" d="M313.17,131.27c-8.17,0-14.83,6.66-14.83,14.83v31.3c0,8.17,6.66,14.83,14.83,14.83s14.83-6.66,14.83-14.83v-31.3c0-8.17-6.64-14.83-14.83-14.83Zm0,67.53c-11.79,0-21.38-9.6-21.38-21.38v-31.32c0-11.79,9.6-21.38,21.38-21.38s21.38,9.59,21.38,21.38v31.3c0,11.81-9.6,21.4-21.38,21.4Z"/><path class="cls-4" d="M478.6,131.27c-8.17,0-14.83,6.66-14.83,14.83v31.3c0,8.17,6.66,14.83,14.83,14.83s14.83-6.66,14.83-14.83v-31.3c0-8.17-6.64-14.83-14.83-14.83Zm0,67.53c-11.79,0-21.38-9.6-21.38-21.38v-31.32c0-11.79,9.6-21.38,21.38-21.38s21.4,9.59,21.4,21.38v31.3c0,11.81-9.6,21.4-21.4,21.4Z"/><path class="cls-4" d="M130.64,147.51v-16.23h19.74c5.47,0,9.92,4.45,9.92,9.91s-4.45,9.92-9.92,9.92h-19.74v-3.6Zm20.43,10.13c8.77-.36,15.77-7.6,15.77-16.45s-7.38-16.47-16.47-16.47h-23c-1.81,0-3.28,1.47-3.28,3.28v23.13h-7.89c-1.81,0-3.28,1.47-3.28,3.28s1.47,3.28,3.28,3.28h7.89v37.83c0,1.81,1.47,3.28,3.28,3.28s3.28-1.47,3.28-3.28v-37.83h13.34l16.57,39.13c.53,1.26,1.75,2,3.02,2,.43,0,.85-.09,1.28-.26,1.66-.7,2.45-2.64,1.74-4.3l-15.53-36.62Z"/><path class="cls-4" d="M37.47,151.12H17.72v-19.85h19.74c5.47,0,9.91,4.45,9.91,9.91s-4.45,9.94-9.91,9.94Zm0-26.4H14.45c-1.81,0-3.28,1.47-3.28,3.28v23.13H3.28c-1.81,0-3.28,1.47-3.28,3.28s1.47,3.28,3.28,3.28h7.89v37.85c0,1.81,1.47,3.28,3.28,3.28s3.28-1.47,3.28-3.28v-37.85h19.74c9.09,0,16.47-7.38,16.47-16.47s-7.38-16.49-16.47-16.49Z"/><path class="cls-4" d="M223.96,124.72h-47.38c-1.81,0-3.28,1.47-3.28,3.28s1.47,3.28,3.28,3.28h20.4v64.23c0,1.81,1.47,3.28,3.28,3.28s3.28-1.47,3.28-3.28v-64.23h20.4c1.81,0,3.28-1.47,3.28-3.28s-1.45-3.28-3.26-3.28Z"/><path class="cls-4" d="M392.98,198.81h-36.21c-1.81,0-3.28-1.47-3.28-3.28V128c0-1.81,1.47-3.28,3.28-3.28s3.28,1.47,3.28,3.28v64.23h32.94c1.81,0,3.28,1.47,3.28,3.28s-1.47,3.3-3.28,3.3Z"/><path class="cls-4" d="M445.51,192.23h-14.83v-60.96h14.83c1.81,0,3.28-1.47,3.28-3.28s-1.47-3.28-3.28-3.28h-36.21c-1.81,0-3.28,1.47-3.28,3.28s1.47,3.28,3.28,3.28h14.83v60.96h-14.83c-1.81,0-3.28,1.47-3.28,3.28s1.47,3.28,3.28,3.28h36.21c1.81,0,3.28-1.47,3.28-3.28s-1.47-3.28-3.28-3.28Z"/></g></g><g class="cls-1"><g><path class="cls-4" d="M6.6,46.29v20.53l12.07-8.5-12.07-12.03Zm-3.29,30.18c-.52,0-1.04-.12-1.53-.37-1.09-.57-1.78-1.7-1.78-2.94V38.31c0-1.33,.82-2.54,2.03-3.04,1.24-.52,2.65-.22,3.59,.72l18.5,18.48,16.99-11.95L1.41,14.52C-.07,13.46-.45,11.41,.62,9.93c1.04-1.51,3.09-1.85,4.58-.79l43.55,30.68c.89,.62,1.41,1.63,1.41,2.69s-.52,2.07-1.41,2.69l-19.89,14,11.67,11.63c1.29,1.28,1.29,3.38,0,4.67-1.29,1.28-3.39,1.28-4.67,0l-12.49-12.45-18.18,12.79c-.54,.4-1.21,.62-1.88,.62Z"/><path class="cls-4" d="M118.54,76.47c-1.09,0-2.13-.54-2.74-1.46l-20.73-31.02-19.86,1.8c-1.48,.12-2.89-.74-3.39-2.15-.52-1.41-.02-2.96,1.19-3.83L116.64,9.11c1.48-1.04,3.56-.69,4.6,.79,1.04,1.48,.69,3.56-.79,4.59l-33.56,23.56,9.52-.86c1.21-.1,2.37,.44,3.04,1.46l15.78,23.59v-24.3c0-1.83,1.48-3.28,3.31-3.28s3.29,1.48,3.29,3.28v35.17c0,1.46-.94,2.74-2.35,3.16-.3,.15-.62,.2-.94,.2Z"/><path class="cls-4" d="M60.92,76.47c-1.83,0-3.31-1.48-3.31-3.29V13.56c0-1.83,1.48-3.29,3.31-3.29s3.29,1.48,3.29,3.29v59.6c.02,1.83-1.46,3.31-3.29,3.31Z"/><path class="cls-4" d="M64.26,3.33c0,1.83-1.48,3.33-3.34,3.33s-3.34-1.48-3.34-3.33,1.48-3.33,3.34-3.33,3.34,1.48,3.34,3.33Z"/></g></g></g></svg>