<?xml version="1.0" encoding="UTF-8"?><svg id="_레이어_2" xmlns="http://www.w3.org/2000/svg" xmlns:xlink="http://www.w3.org/1999/xlink" viewBox="0 0 1920 932"><defs><style>.cls-1,.cls-2{fill:#fff;}.cls-3{clip-path:url(#clippath-2);}.cls-4,.cls-2{opacity:.2;}.cls-5{clip-path:url(#clippath-1);}.cls-6{clip-path:url(#clippath);}.cls-7{fill:none;}.cls-8{fill:#4384f7;}.cls-9{fill:url(#_무제_그라디언트_96);}</style><clipPath id="clippath"><rect class="cls-7" width="1920" height="932"/></clipPath><linearGradient id="_무제_그라디언트_96" x1="960" y1="6.43" x2="960" y2="922.59" gradientUnits="userSpaceOnUse"><stop offset="0" stop-color="#e3edfe"/><stop offset="1" stop-color="#b6d3ff"/></linearGradient><clipPath id="clippath-1"><rect class="cls-7" x="706.8" y="410.35" width="751.14" height="111.3"/></clipPath><clipPath id="clippath-2"><rect class="cls-7" x="462.05" y="410.35" width="177.33" height="111.3"/></clipPath></defs><g id="_레이어_1-2"><g class="cls-6"><rect class="cls-9" width="1920" height="932"/><g class="cls-4"><circle class="cls-1" cx="1386.77" cy="830.4" r="143.19"/><circle class="cls-1" cx="1259.83" cy="929.47" r="143.19"/><circle class="cls-1" cx="1444.04" cy="929.47" r="143.19"/><circle class="cls-1" cx="1250.54" cy="889.23" r="143.19"/><circle class="cls-1" cx="1131.66" cy="912.13" r="93.21"/><circle class="cls-1" cx="1693.63" cy="896.78" r="129.93"/><circle class="cls-1" cx="1529.96" cy="768.61" r="116.09"/><circle class="cls-1" cx="1572.85" cy="952.24" r="103.59"/></g><g><circle class="cls-1" cx="1807.68" cy="777.84" r="256.57"/><circle class="cls-1" cx="2051.17" cy="890.96" r="233.64"/><circle class="cls-1" cx="1784.75" cy="877.16" r="233.64"/><circle class="cls-1" cx="1522.54" cy="877.16" r="184.35"/><circle class="cls-1" cx="1522.54" cy="914.62" r="184.35"/><circle class="cls-1" cx="1346.07" cy="942.22" r="125.2"/></g><path class="cls-2" d="M770.21,819.11c-24.54-43.61-71.26-73.08-124.87-73.08-6.64,0-13.16,.46-19.56,1.34-25.96-36.41-68.54-60.16-116.67-60.16-18.3,0-35.8,3.44-51.89,9.7-21.25-27.03-54.25-44.39-91.3-44.39-64.11,0-116.09,51.97-116.09,116.09,0,2.46,.09,4.9,.24,7.33-14.8-5.86-30.94-9.09-47.83-9.09-71.76,0-129.93,58.17-129.93,129.93s58.17,129.93,129.93,129.93c14.76,0,28.95-2.47,42.17-7,19,22.12,47.17,36.13,78.61,36.13,16.12,0,31.39-3.69,44.99-10.26,23.56,17.04,52.51,27.09,83.81,27.09,35.08,0,67.21-12.62,92.11-33.57,24.9,20.94,57.03,33.57,92.11,33.57,51.31,0,96.32-27,121.6-67.56,2.17,.15,4.36,.23,6.57,.23,51.48,0,93.21-41.73,93.21-93.21s-38.53-89.92-87.22-93.01Z"/><path class="cls-1" d="M565.93,817.02c-.72,0-1.43,.02-2.15,.03-24.93-72.3-93.55-124.24-174.31-124.24-14.25,0-28.12,1.62-41.43,4.68-33.72-102.34-130.08-176.21-243.71-176.21-98.37,0-183.8,55.37-226.85,136.64-5.5-.39-11.04-.6-16.63-.6-129.03,0-233.64,104.6-233.64,233.64s104.6,233.64,233.64,233.64c53.93,0,103.58-18.28,143.12-48.97,35.79,22.28,78.04,35.16,123.3,35.16,55.77,0,106.97-19.55,147.14-52.17,31.54,25.24,71.54,40.34,115.08,40.34,46.03,0,88.12-16.87,120.42-44.77,16.86,8.46,35.89,13.22,56.04,13.22,69.15,0,125.2-56.05,125.2-125.2s-56.05-125.2-125.2-125.2Z"/><polygon class="cls-7" points="1920 934.09 0 931.7 0 0 1920 2.38 1920 934.09"/><g><g class="cls-5"><g><path class="cls-8" d="M1128.04,410.35h-54.4c-2.72,0-4.93,2.21-4.93,4.93v34.75h-11.85c-2.72,0-4.93,2.21-4.93,4.93s2.21,4.93,4.93,4.93h11.85v56.86c0,2.72,2.21,4.93,4.93,4.93s4.93-2.21,4.93-4.93v-56.86h32.19c2.72,0,4.93-2.21,4.93-4.93s-2.21-4.93-4.93-4.93h-32.19v-29.82h49.49c2.72,0,4.93-2.21,4.93-4.93s-2.21-4.93-4.93-4.93h-.02Z"/><path class="cls-8" d="M832.14,420.19c-12.27,0-22.28,10.01-22.28,22.28v47.02c0,12.27,10.01,22.28,22.28,22.28s22.28-10.01,22.28-22.28v-47.02c0-12.27-10.01-22.28-22.28-22.28Zm0,101.45c-17.71,0-32.12-14.42-32.12-32.12v-47.05c0-17.71,14.42-32.12,32.12-32.12s32.12,14.41,32.12,32.12v47.02c0,17.74-14.42,32.15-32.12,32.15Z"/><path class="cls-8" d="M1177.27,420.19c-12.27,0-22.28,10.01-22.28,22.28v47.02c0,12.27,10.01,22.28,22.28,22.28s22.28-10.01,22.28-22.28v-47.02c0-12.27-9.98-22.28-22.28-22.28Zm0,101.45c-17.71,0-32.12-14.42-32.12-32.12v-47.05c0-17.71,14.42-32.12,32.12-32.12s32.12,14.41,32.12,32.12v47.02c0,17.74-14.42,32.15-32.12,32.15Z"/><path class="cls-8" d="M1425.8,420.19c-12.27,0-22.28,10.01-22.28,22.28v47.02c0,12.27,10.01,22.28,22.28,22.28s22.28-10.01,22.28-22.28v-47.02c0-12.27-9.98-22.28-22.28-22.28Zm0,101.45c-17.71,0-32.12-14.42-32.12-32.12v-47.05c0-17.71,14.42-32.12,32.12-32.12s32.15,14.41,32.15,32.12v47.02c0,17.74-14.42,32.15-32.15,32.15Z"/><path class="cls-8" d="M903.06,444.58v-24.38h29.66c8.22,0,14.9,6.69,14.9,14.89s-6.69,14.9-14.9,14.9h-29.66v-5.41Zm30.69,15.22c13.18-.54,23.69-11.42,23.69-24.71s-11.09-24.74-24.74-24.74h-34.55c-2.72,0-4.93,2.21-4.93,4.93v34.75h-11.85c-2.72,0-4.93,2.21-4.93,4.93s2.21,4.93,4.93,4.93h11.85v56.83c0,2.72,2.21,4.93,4.93,4.93s4.93-2.21,4.93-4.93v-56.83h20.04l24.89,58.78c.8,1.89,2.63,3,4.54,3,.65,0,1.28-.14,1.92-.39,2.49-1.05,3.68-3.97,2.61-6.46l-23.33-55.01h0Z"/><path class="cls-8" d="M763.09,450.01h-29.67v-29.82h29.66c8.22,0,14.89,6.69,14.89,14.89s-6.69,14.93-14.89,14.93h.02Zm0-39.66h-34.58c-2.72,0-4.93,2.21-4.93,4.93v34.75h-11.85c-2.72,0-4.93,2.21-4.93,4.93s2.21,4.93,4.93,4.93h11.85v56.86c0,2.72,2.21,4.93,4.93,4.93s4.93-2.21,4.93-4.93v-56.86h29.66c13.66,0,24.74-11.09,24.74-24.74s-11.09-24.77-24.74-24.77h0Z"/><path class="cls-8" d="M1043.26,410.35h-71.18c-2.72,0-4.93,2.21-4.93,4.93s2.21,4.93,4.93,4.93h30.65v96.49c0,2.72,2.21,4.93,4.93,4.93s4.93-2.21,4.93-4.93v-96.49h30.65c2.72,0,4.93-2.21,4.93-4.93s-2.18-4.93-4.9-4.93h0Z"/><path class="cls-8" d="M1297.17,521.65h-54.4c-2.72,0-4.93-2.21-4.93-4.93v-101.45c0-2.72,2.21-4.93,4.93-4.93s4.93,2.21,4.93,4.93v96.49h49.49c2.72,0,4.93,2.21,4.93,4.93s-2.21,4.96-4.93,4.96h-.02Z"/><path class="cls-8" d="M1376.09,511.77h-22.28v-91.58h22.28c2.72,0,4.93-2.21,4.93-4.93s-2.21-4.93-4.93-4.93h-54.4c-2.72,0-4.93,2.21-4.93,4.93s2.21,4.93,4.93,4.93h22.28v91.58h-22.28c-2.72,0-4.93,2.21-4.93,4.93s2.21,4.93,4.93,4.93h54.4c2.72,0,4.93-2.21,4.93-4.93s-2.21-4.93-4.93-4.93h0Z"/></g></g><g class="cls-3"><g><path class="cls-8" d="M471.66,477.72v29.88l17.57-12.37s-17.57-17.51-17.57-17.51Zm-4.79,43.93c-.76,0-1.51-.17-2.23-.54-1.59-.83-2.59-2.47-2.59-4.28v-50.73c0-1.94,1.19-3.7,2.95-4.42,1.8-.76,3.86-.32,5.23,1.05l26.93,26.9,24.73-17.39-57.78-40.75c-2.15-1.54-2.71-4.53-1.15-6.68,1.51-2.2,4.5-2.69,6.67-1.15l63.39,44.66c1.3,.9,2.05,2.37,2.05,3.92s-.76,3.01-2.05,3.92l-28.95,20.38,16.99,16.93c1.88,1.86,1.88,4.92,0,6.8-1.88,1.86-4.93,1.86-6.8,0l-18.18-18.12-26.46,18.62c-.79,.58-1.76,.9-2.74,.9h0Z"/><path class="cls-8" d="M634.59,521.65c-1.59,0-3.1-.79-3.99-2.13l-30.17-45.15-28.91,2.62c-2.15,.17-4.21-1.08-4.93-3.13-.76-2.05-.03-4.31,1.73-5.57l63.5-44.68c2.15-1.51,5.18-1,6.7,1.15s1,5.18-1.15,6.68l-48.85,34.29,13.86-1.25c1.76-.15,3.45,.64,4.42,2.13l22.97,34.34v-35.37c0-2.66,2.15-4.77,4.82-4.77s4.79,2.15,4.79,4.77v51.19c0,2.13-1.37,3.99-3.42,4.6-.44,.22-.9,.29-1.37,.29Z"/><path class="cls-8" d="M550.73,521.65c-2.66,0-4.82-2.15-4.82-4.79v-86.78c0-2.66,2.15-4.79,4.82-4.79s4.79,2.15,4.79,4.79v86.75c.03,2.66-2.13,4.82-4.79,4.82Z"/><path class="cls-8" d="M555.59,415.19c0,2.66-2.15,4.85-4.86,4.85s-4.86-2.15-4.86-4.85,2.15-4.85,4.86-4.85,4.86,2.15,4.86,4.85Z"/></g></g></g><circle class="cls-1" cx="163.54" cy="223.96" r="2.5"/><circle class="cls-1" cx="696.76" cy="132.04" r="2.5"/><circle class="cls-1" cx="357.65" cy="456.24" r="2.5"/><circle class="cls-1" cx="962.5" cy="665.03" r="2.5"/><circle class="cls-1" cx="1368.71" cy="299.99" r="2.5"/><circle class="cls-1" cx="1624.49" cy="205.01" r="2.5"/><circle class="cls-1" cx="1621.99" cy="479.97" r="2.5"/><circle class="cls-1" cx="451.09" cy="212.51" r="5"/><circle class="cls-1" cx="827.33" cy="733.47" r="5"/><circle class="cls-1" cx="1173.75" cy="90.17" r="5"/></g></g></svg>